# xmcd
#
# Track frame offsets: 
#        150
#        25977
#        53322
#        78055
#        96060
#        112000
#        129052
#        155702
#        174352
#        186467
#        204525
#        240142
#        252250
#        268402
#        282102
#        299092
#        312297
#        328192
#        340487
#
# Disc length: 4683 seconds
#
# Revision: 2
# Processed by: cddbd v1.5.2PL0 Copyright (c) Steve Scherf et al.
# Submitted via: ExactAudioCopy v1.0b1
#
DISCID=11124913
DTITLE=Leon Haywood - Best Of
DYEAR=1996
DGENRE=
TTITLE0=Daydream
TTITLE1=Strokin' Parts I And II
TTITLE2=Don't Push It Don't Force It
TTITLE3=T.V. Mama
TTITLE4=Come And Get Yourself Some
TTITLE5=This Feeling's Rated Extra
TTITLE6=I Want'a Do Something Freaky To You
TTITLE7=That's What Time It Is
TTITLE8=Keep It In The Family
TTITLE9=Consider The Source
TTITLE10=Long As There's You (I Got Love)
TTITLE11=Sugar Lump
TTITLE12=La La Song
TTITLE13=One Way Ticket To Loveland
TTITLE14=That Sweet Woman Of Mine
TTITLE15=Who You Been Givin' It Up To
TTITLE16=Just Your Fool
TTITLE17=Believe Half Of What You See (And None Of What You Hear)
TTITLE18=It's Got To Be Mellow
EXTD=
EXTT0=
EXTT1=
EXTT2=
EXTT3=
EXTT4=
EXTT5=
EXTT6=
EXTT7=
EXTT8=
EXTT9=
EXTT10=
EXTT11=
EXTT12=
EXTT13=
EXTT14=
EXTT15=
EXTT16=
EXTT17=
EXTT18=
PLAYORDER=
